<svg width="76" height="77" viewBox="0 0 76 77" fill="none" xmlns="http://www.w3.org/2000/svg">
<ellipse rx="5.84151" ry="5.95049" transform="matrix(-1 0 0 1 69.3597 5.95049)" fill="#625ACA"/>
<ellipse rx="5.84151" ry="5.95049" transform="matrix(-1 0 0 1 69.3597 27.5181)" fill="#625ACA"/>
<ellipse rx="5.84151" ry="5.95049" transform="matrix(-1 0 0 1 69.3597 49.0865)" fill="#625ACA"/>
<ellipse rx="5.84151" ry="5.95049" transform="matrix(-1 0 0 1 69.3597 70.6541)" fill="#625ACA"/>
<ellipse rx="5.84151" ry="5.95049" transform="matrix(-1 0 0 1 48.1858 5.95049)" fill="#625ACA"/>
<ellipse rx="5.84151" ry="5.95049" transform="matrix(-1 0 0 1 48.1858 27.5181)" fill="#625ACA"/>
<ellipse rx="5.84151" ry="5.95049" transform="matrix(-1 0 0 1 48.1858 49.0865)" fill="#625ACA"/>
<ellipse rx="5.84151" ry="5.95049" transform="matrix(-1 0 0 1 27.014 5.95049)" fill="#625ACA"/>
<ellipse rx="5.84151" ry="5.95049" transform="matrix(-1 0 0 1 5.84159 5.95049)" fill="#625ACA"/>
<ellipse rx="5.84151" ry="5.95049" transform="matrix(-1 0 0 1 27.014 27.5181)" fill="#625ACA"/>
</svg>
