<svg width="76" height="77" viewBox="0 0 76 77" fill="none" xmlns="http://www.w3.org/2000/svg">
<ellipse rx="5.84151" ry="5.95049" transform="matrix(1 0 0 -1 5.84151 70.654)" fill="#625ACA"/>
<ellipse rx="5.84151" ry="5.95049" transform="matrix(1 0 0 -1 5.84151 49.0864)" fill="#625ACA"/>
<ellipse rx="5.84151" ry="5.95049" transform="matrix(1 0 0 -1 5.84151 27.518)" fill="#625ACA"/>
<ellipse rx="5.84151" ry="5.95049" transform="matrix(1 0 0 -1 5.84151 5.95039)" fill="#625ACA"/>
<ellipse rx="5.84151" ry="5.95049" transform="matrix(1 0 0 -1 27.0153 70.654)" fill="#625ACA"/>
<ellipse rx="5.84151" ry="5.95049" transform="matrix(1 0 0 -1 27.0153 49.0864)" fill="#625ACA"/>
<ellipse rx="5.84151" ry="5.95049" transform="matrix(1 0 0 -1 27.0153 27.518)" fill="#625ACA"/>
<ellipse rx="5.84151" ry="5.95049" transform="matrix(1 0 0 -1 48.1872 70.654)" fill="#625ACA"/>
<ellipse rx="5.84151" ry="5.95049" transform="matrix(1 0 0 -1 69.3596 70.654)" fill="#625ACA"/>
<ellipse rx="5.84151" ry="5.95049" transform="matrix(1 0 0 -1 48.1872 49.0864)" fill="#625ACA"/>
</svg>
