<svg width="78" height="345" viewBox="0 0 78 345" fill="none" xmlns="http://www.w3.org/2000/svg">
<g filter="url(#filter0_d_13_393)">
<rect x="4.93677" width="68.1266" height="69" rx="5" fill="#625ACA"/>
</g>
<path d="M58.1599 309.404C57.6474 306.302 56.6741 303.351 55.2914 300.705L57.7614 296.942L52.492 290.298L49.5082 293.409C47.4089 291.668 45.0681 290.443 42.6085 289.796L42.2462 284.946H34.7669L34.4047 289.796C31.9459 290.442 29.6061 291.668 27.5083 293.409L24.5245 290.303L19.2551 296.947L21.7251 300.709C20.3394 303.353 19.3618 306.303 18.8434 309.404L15 309.861V319.279L18.8434 319.736C19.3612 322.842 20.3401 325.796 21.7284 328.444L19.2584 332.206L24.5278 338.85L27.5116 335.736C29.6092 337.478 31.949 338.705 34.408 339.352L34.7702 344.198H42.2396L42.6019 339.352C45.0617 338.704 47.4025 337.477 49.5016 335.736L52.4854 338.85L57.7548 332.206L55.2848 328.444C56.6675 325.799 57.6408 322.849 58.1533 319.748L62 319.291V309.873L58.1599 309.404ZM48.6091 314.57C48.6091 317.091 48.0161 319.556 46.9051 321.653C45.7941 323.749 44.215 325.383 42.3676 326.348C40.5201 327.313 38.4871 327.565 36.5259 327.073C34.5646 326.581 32.763 325.367 31.349 323.584C29.935 321.802 28.972 319.53 28.5819 317.057C28.1918 314.584 28.392 312.021 29.1573 309.691C29.9225 307.362 31.2184 305.371 32.8811 303.97C34.5438 302.569 36.4986 301.822 38.4984 301.822C39.8272 301.821 41.1431 302.151 42.3709 302.792C43.5986 303.433 44.714 304.373 45.6533 305.559C46.5927 306.744 47.3375 308.151 47.8453 309.699C48.353 311.248 48.6137 312.907 48.6124 314.582L48.6091 314.57Z" fill="#070246"/>
<defs>
<filter id="filter0_d_13_393" x="0.936768" y="0" width="76.1266" height="77" filterUnits="userSpaceOnUse" color-interpolation-filters="sRGB">
<feFlood flood-opacity="0" result="BackgroundImageFix"/>
<feColorMatrix in="SourceAlpha" type="matrix" values="0 0 0 0 0 0 0 0 0 0 0 0 0 0 0 0 0 0 127 0" result="hardAlpha"/>
<feOffset dy="4"/>
<feGaussianBlur stdDeviation="2"/>
<feComposite in2="hardAlpha" operator="out"/>
<feColorMatrix type="matrix" values="0 0 0 0 0 0 0 0 0 0 0 0 0 0 0 0 0 0 0.25 0"/>
<feBlend mode="normal" in2="BackgroundImageFix" result="effect1_dropShadow_13_393"/>
<feBlend mode="normal" in="SourceGraphic" in2="effect1_dropShadow_13_393" result="shape"/>
</filter>
</defs>
</svg>
