<svg width="55" height="188" viewBox="0 0 55 188" fill="none" xmlns="http://www.w3.org/2000/svg">
<path d="M42.072 27.205C41.1316 42.4589 31.3086 47.0782 31.3086 47.0782C30.5855 49.3951 29.6414 57.834 29.6414 57.834H16.529C16.529 57.834 15.5887 49.3951 14.8656 47.0782C14.8656 47.0782 5.04258 42.4783 4.10224 27.205C3.44662 16.6043 9.27976 0.933558 23.0141 0.928711H23.1564C36.8907 0.933558 42.7276 16.6043 42.072 27.205Z" fill="#FDE46D"/>
<circle cx="50.3629" cy="183.363" r="4.24156" transform="rotate(-180 50.3629 183.363)" fill="#070246"/>
<circle cx="50.3629" cy="167.989" r="4.24156" transform="rotate(-180 50.3629 167.989)" fill="#070246"/>
<circle cx="50.3629" cy="152.615" r="4.24156" transform="rotate(-180 50.3629 152.615)" fill="#070246"/>
<circle cx="50.3629" cy="137.241" r="4.24156" transform="rotate(-180 50.3629 137.241)" fill="#070246"/>
<circle cx="34.9892" cy="183.363" r="4.24156" transform="rotate(-180 34.9892 183.363)" fill="#070246"/>
<circle cx="34.9892" cy="167.989" r="4.24156" transform="rotate(-180 34.9892 167.989)" fill="#070246"/>
<circle cx="34.9892" cy="152.615" r="4.24156" transform="rotate(-180 34.9892 152.615)" fill="#070246"/>
<circle cx="19.6154" cy="183.363" r="4.24156" transform="rotate(-180 19.6154 183.363)" fill="#070246"/>
<circle cx="4.24159" cy="183.363" r="4.24156" transform="rotate(-180 4.24159 183.363)" fill="#070246"/>
<circle cx="19.6154" cy="167.989" r="4.24156" transform="rotate(-180 19.6154 167.989)" fill="#070246"/>
</svg>
