<svg width="68" height="93" viewBox="0 0 68 93" fill="none" xmlns="http://www.w3.org/2000/svg">
<g filter="url(#filter0_d_13_396)">
<path d="M52.2477 0.513898H15.807C12.8299 0.513898 9.97471 2.00485 7.86957 4.65878C5.76444 7.31271 4.58179 10.9122 4.58179 14.6654V54.6415C4.58179 58.3947 5.76444 61.9943 7.86957 64.6482C9.97471 67.3021 12.8299 68.7931 15.807 68.7931H26.4487V84.6076L34.0591 68.7931H52.3111C55.286 68.7888 58.1379 67.296 60.2403 64.6425C62.3427 61.9891 63.5236 58.392 63.5236 54.6415V14.6654C63.5253 12.801 63.2345 10.9546 62.6678 9.23254C62.1011 7.51045 61.2698 5.94671 60.2217 4.63136C59.1736 3.316 57.9295 2.27503 56.561 1.56837C55.1924 0.861715 53.7265 0.503352 52.2477 0.513898Z" fill="#625ACA"/>
<path d="M51.6245 39.7095C53.9191 27.4529 47.8979 15.1718 38.1758 12.279C28.4537 9.38615 18.7121 16.977 16.4175 29.2337C14.1229 41.4903 20.144 53.7714 29.8662 56.6642C39.5883 59.557 49.3299 51.9662 51.6245 39.7095Z" fill="#070246"/>
<path d="M32.1312 44.6633C31.8901 44.6641 31.6517 44.5987 31.4327 44.4716C31.2137 44.3446 31.0192 44.1591 30.8628 43.9278L23.7598 33.3901C23.6182 33.1801 23.5109 32.937 23.4438 32.6747C23.3767 32.4124 23.3513 32.136 23.369 31.8613C23.3866 31.5866 23.447 31.319 23.5468 31.0737C23.6465 30.8284 23.7835 30.6103 23.9501 30.4318C24.2865 30.0714 24.7227 29.8941 25.1627 29.9391C25.3806 29.9614 25.5929 30.0375 25.7875 30.1632C25.982 30.2889 26.155 30.4617 26.2966 30.6717L32.1312 39.3225L41.7455 25.0271C42.0315 24.603 42.4393 24.3394 42.8794 24.2945C43.3194 24.2495 43.7556 24.4267 44.092 24.7872C44.4284 25.1477 44.6375 25.6619 44.6731 26.2167C44.7088 26.7714 44.5682 27.3214 44.2823 27.7455L33.3869 43.9278C33.2329 44.1587 33.0407 44.3442 32.8238 44.4713C32.6068 44.5983 32.3704 44.6639 32.1312 44.6633Z" fill="white"/>
</g>
<defs>
<filter id="filter0_d_13_396" x="0.581787" y="0.513672" width="66.9419" height="92.0938" filterUnits="userSpaceOnUse" color-interpolation-filters="sRGB">
<feFlood flood-opacity="0" result="BackgroundImageFix"/>
<feColorMatrix in="SourceAlpha" type="matrix" values="0 0 0 0 0 0 0 0 0 0 0 0 0 0 0 0 0 0 127 0" result="hardAlpha"/>
<feOffset dy="4"/>
<feGaussianBlur stdDeviation="2"/>
<feComposite in2="hardAlpha" operator="out"/>
<feColorMatrix type="matrix" values="0 0 0 0 0 0 0 0 0 0 0 0 0 0 0 0 0 0 0.25 0"/>
<feBlend mode="normal" in2="BackgroundImageFix" result="effect1_dropShadow_13_396"/>
<feBlend mode="normal" in="SourceGraphic" in2="effect1_dropShadow_13_396" result="shape"/>
</filter>
</defs>
</svg>
