<svg width="40" height="40" viewBox="0 0 40 40" fill="none" xmlns="http://www.w3.org/2000/svg">
<circle r="3.06016" transform="matrix(-1 0 0 1 36.3353 3.06016)" fill="#D9D9D9"/>
<circle r="3.06016" transform="matrix(-1 0 0 1 36.3353 14.152)" fill="#D9D9D9"/>
<circle r="3.06016" transform="matrix(-1 0 0 1 36.3353 25.2438)" fill="#D9D9D9"/>
<circle r="3.06016" transform="matrix(-1 0 0 1 36.3353 36.3356)" fill="#D9D9D9"/>
<circle r="3.06016" transform="matrix(-1 0 0 1 25.2435 3.06016)" fill="#D9D9D9"/>
<circle r="3.06016" transform="matrix(-1 0 0 1 25.2435 14.152)" fill="#D9D9D9"/>
<circle r="3.06016" transform="matrix(-1 0 0 1 25.2435 25.2438)" fill="#D9D9D9"/>
<circle r="3.06016" transform="matrix(-1 0 0 1 14.152 3.06016)" fill="#D9D9D9"/>
<circle r="3.06016" transform="matrix(-1 0 0 1 3.0602 3.06016)" fill="#D9D9D9"/>
<circle r="3.06016" transform="matrix(-1 0 0 1 14.152 14.152)" fill="#D9D9D9"/>
</svg>
